<mxfile host="65bd71144e">
    <diagram id="fOlrrNHoiOb_E9Hl3CoH" name="Page-1">
        <mxGraphModel dx="2951" dy="2595" grid="0" gridSize="10" guides="1" tooltips="1" connect="1" arrows="1" fold="1" page="0" pageScale="1" pageWidth="850" pageHeight="1100" math="0" shadow="0">
            <root>
                <mxCell id="0"/>
                <mxCell id="1" parent="0"/>
                <mxCell id="27" value="" style="group;movable=1;resizable=1;rotatable=1;deletable=1;editable=1;connectable=1;" parent="1" vertex="1" connectable="0">
                    <mxGeometry x="-427" y="-1105" width="1409" height="862" as="geometry"/>
                </mxCell>
                <mxCell id="20" value="" style="group;movable=1;resizable=1;rotatable=1;deletable=1;editable=1;connectable=1;" parent="27" vertex="1" connectable="0">
                    <mxGeometry y="3" width="1400" height="859" as="geometry"/>
                </mxCell>
                <mxCell id="21" value="&amp;nbsp; &amp;nbsp; www.thisisluke.com" style="rounded=1;whiteSpace=wrap;html=1;align=left;movable=0;resizable=0;rotatable=0;deletable=0;editable=0;connectable=0;" parent="20" vertex="1">
                    <mxGeometry x="59" width="1312" height="22" as="geometry"/>
                </mxCell>
                <mxCell id="22" value="" style="rounded=0;whiteSpace=wrap;html=1;movable=0;resizable=0;rotatable=0;deletable=0;editable=0;connectable=0;" parent="20" vertex="1">
                    <mxGeometry x="24" y="38" width="1376" height="821" as="geometry"/>
                </mxCell>
                <mxCell id="23" value="" style="ellipse;whiteSpace=wrap;html=1;aspect=fixed;movable=0;resizable=0;rotatable=0;deletable=0;editable=0;connectable=0;" parent="20" vertex="1">
                    <mxGeometry x="17" y="5" width="12" height="12" as="geometry"/>
                </mxCell>
                <mxCell id="24" value="" style="ellipse;whiteSpace=wrap;html=1;aspect=fixed;movable=0;resizable=0;rotatable=0;deletable=0;editable=0;connectable=0;" parent="20" vertex="1">
                    <mxGeometry x="34" y="5" width="12" height="12" as="geometry"/>
                </mxCell>
                <mxCell id="25" value="" style="ellipse;whiteSpace=wrap;html=1;aspect=fixed;movable=0;resizable=0;rotatable=0;deletable=0;editable=0;connectable=0;" parent="20" vertex="1">
                    <mxGeometry y="5" width="12" height="12" as="geometry"/>
                </mxCell>
                <mxCell id="39" value="Design" style="text;html=1;strokeColor=none;fillColor=none;align=center;verticalAlign=middle;whiteSpace=wrap;rounded=0;fontSize=14;" parent="20" vertex="1">
                    <mxGeometry x="959" y="62" width="60" height="30" as="geometry"/>
                </mxCell>
                <mxCell id="40" value="Photography" style="text;html=1;strokeColor=none;fillColor=none;align=center;verticalAlign=middle;whiteSpace=wrap;rounded=0;fontSize=14;" parent="20" vertex="1">
                    <mxGeometry x="1040" y="62" width="60" height="30" as="geometry"/>
                </mxCell>
                <mxCell id="41" value="Programming" style="text;html=1;strokeColor=none;fillColor=none;align=center;verticalAlign=middle;whiteSpace=wrap;rounded=0;fontSize=14;" parent="20" vertex="1">
                    <mxGeometry x="1140" y="62" width="60" height="30" as="geometry"/>
                </mxCell>
                <mxCell id="42" value="Blog" style="text;html=1;strokeColor=none;fillColor=none;align=center;verticalAlign=middle;whiteSpace=wrap;rounded=0;fontSize=14;" parent="20" vertex="1">
                    <mxGeometry x="1328" y="62" width="60" height="30" as="geometry"/>
                </mxCell>
                <mxCell id="45" value="contact" style="ellipse;whiteSpace=wrap;html=1;aspect=fixed;" parent="20" vertex="1">
                    <mxGeometry x="1287" y="753" width="80" height="80" as="geometry"/>
                </mxCell>
                <mxCell id="46" value="Ai profile photo" style="rounded=0;whiteSpace=wrap;html=1;fontSize=14;" parent="20" vertex="1">
                    <mxGeometry x="1033" y="179" width="295" height="301" as="geometry"/>
                </mxCell>
                <mxCell id="47" value="&lt;h1&gt;This Is Luke&lt;/h1&gt;&lt;p&gt;I Dream of a future where the Blind paint master pieces&lt;/p&gt;&lt;p&gt;I Dream of a future where the deaf compose symphonies&lt;/p&gt;&lt;p&gt;I Dream of a future where the outcasts of today lead the nations of tomorrow&lt;/p&gt;&lt;p&gt;I Dream of a future where man and technology are one&lt;/p&gt;&lt;p&gt;I Dream, I Create, I Lead&lt;/p&gt;" style="text;html=1;strokeColor=none;fillColor=none;spacing=5;spacingTop=-20;whiteSpace=wrap;overflow=hidden;rounded=0;fontSize=14;align=right;" parent="20" vertex="1">
                    <mxGeometry x="358" y="179" width="643" height="300" as="geometry"/>
                </mxCell>
                <mxCell id="48" value="Testimonial 1&lt;br&gt;&lt;br&gt;asjdbnaksjd asjkld kajsd&lt;br&gt;jkasnd kjasdn&amp;nbsp;&lt;br&gt;ajksdnjkasdnkasjdnasjkd" style="rounded=0;whiteSpace=wrap;html=1;fontSize=14;" parent="20" vertex="1">
                    <mxGeometry x="366" y="586" width="198" height="189" as="geometry"/>
                </mxCell>
                <mxCell id="51" value="Home anchor design" style="rounded=0;whiteSpace=wrap;html=1;fontSize=14;" parent="20" vertex="1">
                    <mxGeometry x="59" y="179" width="215" height="597" as="geometry"/>
                </mxCell>
                <mxCell id="53" value="Testimonial 2&lt;br&gt;&lt;br&gt;asjdbnaksjd asjkld kajsd&lt;br&gt;jkasnd kjasdn&amp;nbsp;&lt;br&gt;ajksdnjkasdnkasjdnasjkd" style="rounded=0;whiteSpace=wrap;html=1;fontSize=14;" parent="20" vertex="1">
                    <mxGeometry x="635" y="586" width="198" height="189" as="geometry"/>
                </mxCell>
                <mxCell id="54" value="Testimonial 3&lt;br&gt;&lt;br&gt;asjdbnaksjd asjkld kajsd&lt;br&gt;jkasnd kjasdn&amp;nbsp;&lt;br&gt;ajksdnjkasdnkasjdnasjkd" style="rounded=0;whiteSpace=wrap;html=1;fontSize=14;" parent="20" vertex="1">
                    <mxGeometry x="902" y="587" width="198" height="189" as="geometry"/>
                </mxCell>
                <mxCell id="62" value="" style="group" parent="20" vertex="1" connectable="0">
                    <mxGeometry x="59" y="62" width="1329" height="771" as="geometry"/>
                </mxCell>
                <mxCell id="36" value="logo" style="ellipse;whiteSpace=wrap;html=1;aspect=fixed;" parent="62" vertex="1">
                    <mxGeometry y="9" width="80" height="80" as="geometry"/>
                </mxCell>
                <mxCell id="37" value="" style="endArrow=none;html=1;" parent="62" edge="1">
                    <mxGeometry width="50" height="50" relative="1" as="geometry">
                        <mxPoint x="104" y="48.44" as="sourcePoint"/>
                        <mxPoint x="1315" y="48.44" as="targetPoint"/>
                    </mxGeometry>
                </mxCell>
                <mxCell id="38" value="Home" style="text;html=1;strokeColor=none;fillColor=none;align=center;verticalAlign=middle;whiteSpace=wrap;rounded=0;fontSize=14;fontStyle=4" parent="62" vertex="1">
                    <mxGeometry x="95" width="60" height="30" as="geometry"/>
                </mxCell>
                <mxCell id="55" value="contact" style="ellipse;whiteSpace=wrap;html=1;aspect=fixed;" parent="62" vertex="1">
                    <mxGeometry x="1228" y="691" width="80" height="80" as="geometry"/>
                </mxCell>
                <mxCell id="56" value="Blog" style="text;html=1;strokeColor=none;fillColor=none;align=center;verticalAlign=middle;whiteSpace=wrap;rounded=0;fontSize=14;" parent="62" vertex="1">
                    <mxGeometry x="1269" width="60" height="30" as="geometry"/>
                </mxCell>
                <mxCell id="57" value="Programming" style="text;html=1;strokeColor=none;fillColor=none;align=center;verticalAlign=middle;whiteSpace=wrap;rounded=0;fontSize=14;" parent="62" vertex="1">
                    <mxGeometry x="1081" width="60" height="30" as="geometry"/>
                </mxCell>
                <mxCell id="58" value="Photography" style="text;html=1;strokeColor=none;fillColor=none;align=center;verticalAlign=middle;whiteSpace=wrap;rounded=0;fontSize=14;" parent="62" vertex="1">
                    <mxGeometry x="981" width="60" height="30" as="geometry"/>
                </mxCell>
                <mxCell id="59" value="Design" style="text;html=1;strokeColor=none;fillColor=none;align=center;verticalAlign=middle;whiteSpace=wrap;rounded=0;fontSize=14;" parent="62" vertex="1">
                    <mxGeometry x="900" width="60" height="30" as="geometry"/>
                </mxCell>
                <mxCell id="26" value="" style="shape=manualInput;whiteSpace=wrap;html=1;movable=0;resizable=0;rotatable=0;deletable=0;editable=0;connectable=0;" parent="27" vertex="1">
                    <mxGeometry x="1384" width="25" height="26" as="geometry"/>
                </mxCell>
                <mxCell id="72" value="" style="group;movable=1;resizable=1;rotatable=1;deletable=1;editable=1;connectable=1;" parent="1" vertex="1" connectable="0">
                    <mxGeometry x="1096" y="-1102" width="1409" height="862" as="geometry"/>
                </mxCell>
                <mxCell id="73" value="" style="group;movable=1;resizable=1;rotatable=1;deletable=1;editable=1;connectable=1;" parent="72" vertex="1" connectable="0">
                    <mxGeometry y="3" width="1400" height="859" as="geometry"/>
                </mxCell>
                <mxCell id="74" value="&amp;nbsp; &amp;nbsp; www.thisisluke.com" style="rounded=1;whiteSpace=wrap;html=1;align=left;movable=0;resizable=0;rotatable=0;deletable=0;editable=0;connectable=0;" parent="73" vertex="1">
                    <mxGeometry x="59" width="1312" height="22" as="geometry"/>
                </mxCell>
                <mxCell id="75" value="" style="rounded=0;whiteSpace=wrap;html=1;movable=0;resizable=0;rotatable=0;deletable=0;editable=0;connectable=0;" parent="73" vertex="1">
                    <mxGeometry x="24" y="38" width="1376" height="821" as="geometry"/>
                </mxCell>
                <mxCell id="76" value="" style="ellipse;whiteSpace=wrap;html=1;aspect=fixed;movable=0;resizable=0;rotatable=0;deletable=0;editable=0;connectable=0;" parent="73" vertex="1">
                    <mxGeometry x="17" y="5" width="12" height="12" as="geometry"/>
                </mxCell>
                <mxCell id="77" value="" style="ellipse;whiteSpace=wrap;html=1;aspect=fixed;movable=0;resizable=0;rotatable=0;deletable=0;editable=0;connectable=0;" parent="73" vertex="1">
                    <mxGeometry x="34" y="5" width="12" height="12" as="geometry"/>
                </mxCell>
                <mxCell id="78" value="" style="ellipse;whiteSpace=wrap;html=1;aspect=fixed;movable=0;resizable=0;rotatable=0;deletable=0;editable=0;connectable=0;" parent="73" vertex="1">
                    <mxGeometry y="5" width="12" height="12" as="geometry"/>
                </mxCell>
                <mxCell id="79" value="Design" style="text;html=1;strokeColor=none;fillColor=none;align=center;verticalAlign=middle;whiteSpace=wrap;rounded=0;fontSize=14;" parent="73" vertex="1">
                    <mxGeometry x="959" y="62" width="60" height="30" as="geometry"/>
                </mxCell>
                <mxCell id="80" value="Photography" style="text;html=1;strokeColor=none;fillColor=none;align=center;verticalAlign=middle;whiteSpace=wrap;rounded=0;fontSize=14;" parent="73" vertex="1">
                    <mxGeometry x="1040" y="62" width="60" height="30" as="geometry"/>
                </mxCell>
                <mxCell id="81" value="Programming" style="text;html=1;strokeColor=none;fillColor=none;align=center;verticalAlign=middle;whiteSpace=wrap;rounded=0;fontSize=14;" parent="73" vertex="1">
                    <mxGeometry x="1140" y="62" width="60" height="30" as="geometry"/>
                </mxCell>
                <mxCell id="82" value="Blog" style="text;html=1;strokeColor=none;fillColor=none;align=center;verticalAlign=middle;whiteSpace=wrap;rounded=0;fontSize=14;" parent="73" vertex="1">
                    <mxGeometry x="1328" y="62" width="60" height="30" as="geometry"/>
                </mxCell>
                <mxCell id="83" value="contact" style="ellipse;whiteSpace=wrap;html=1;aspect=fixed;" parent="73" vertex="1">
                    <mxGeometry x="1287" y="753" width="80" height="80" as="geometry"/>
                </mxCell>
                <mxCell id="85" value="&lt;h1&gt;This Is Luke Designs&lt;/h1&gt;&lt;p&gt;I have been in the freelance design field for a over 4 years.&lt;/p&gt;&lt;p&gt;i am well versed in photoshop and premier pro.&lt;/p&gt;&lt;p&gt;I had a creative schooling from highschool and a adobe creative suite certification from CTU&lt;/p&gt;&lt;p&gt;&lt;br&gt;&lt;/p&gt;" style="text;html=1;strokeColor=none;fillColor=none;spacing=5;spacingTop=-20;whiteSpace=wrap;overflow=hidden;rounded=0;fontSize=14;align=right;" parent="73" vertex="1">
                    <mxGeometry x="358" y="179" width="643" height="300" as="geometry"/>
                </mxCell>
                <mxCell id="87" value="Design anchor design" style="rounded=0;whiteSpace=wrap;html=1;fontSize=14;" parent="73" vertex="1">
                    <mxGeometry x="59" y="179" width="215" height="597" as="geometry"/>
                </mxCell>
                <mxCell id="90" value="" style="group" parent="73" vertex="1" connectable="0">
                    <mxGeometry x="59" y="62" width="1329" height="771" as="geometry"/>
                </mxCell>
                <mxCell id="91" value="logo" style="ellipse;whiteSpace=wrap;html=1;aspect=fixed;" parent="90" vertex="1">
                    <mxGeometry y="9" width="80" height="80" as="geometry"/>
                </mxCell>
                <mxCell id="92" value="" style="endArrow=none;html=1;" parent="90" edge="1">
                    <mxGeometry width="50" height="50" relative="1" as="geometry">
                        <mxPoint x="104" y="48.44" as="sourcePoint"/>
                        <mxPoint x="1315" y="48.44" as="targetPoint"/>
                    </mxGeometry>
                </mxCell>
                <mxCell id="93" value="Home" style="text;html=1;strokeColor=none;fillColor=none;align=center;verticalAlign=middle;whiteSpace=wrap;rounded=0;fontSize=14;" parent="90" vertex="1">
                    <mxGeometry x="95" width="60" height="30" as="geometry"/>
                </mxCell>
                <mxCell id="94" value="contact" style="ellipse;whiteSpace=wrap;html=1;aspect=fixed;" parent="90" vertex="1">
                    <mxGeometry x="1228" y="691" width="80" height="80" as="geometry"/>
                </mxCell>
                <mxCell id="95" value="Blog" style="text;html=1;strokeColor=none;fillColor=none;align=center;verticalAlign=middle;whiteSpace=wrap;rounded=0;fontSize=14;" parent="90" vertex="1">
                    <mxGeometry x="1269" width="60" height="30" as="geometry"/>
                </mxCell>
                <mxCell id="96" value="Programming" style="text;html=1;strokeColor=none;fillColor=none;align=center;verticalAlign=middle;whiteSpace=wrap;rounded=0;fontSize=14;" parent="90" vertex="1">
                    <mxGeometry x="1081" width="60" height="30" as="geometry"/>
                </mxCell>
                <mxCell id="97" value="Photography" style="text;html=1;strokeColor=none;fillColor=none;align=center;verticalAlign=middle;whiteSpace=wrap;rounded=0;fontSize=14;" parent="90" vertex="1">
                    <mxGeometry x="981" width="60" height="30" as="geometry"/>
                </mxCell>
                <mxCell id="98" value="Design" style="text;html=1;strokeColor=none;fillColor=none;align=center;verticalAlign=middle;whiteSpace=wrap;rounded=0;fontSize=14;fontStyle=4" parent="90" vertex="1">
                    <mxGeometry x="900" width="60" height="30" as="geometry"/>
                </mxCell>
                <mxCell id="84" value="Carrosell of some designs" style="rounded=0;whiteSpace=wrap;html=1;fontSize=14;" parent="90" vertex="1">
                    <mxGeometry x="335" y="416" width="728" height="301" as="geometry"/>
                </mxCell>
                <mxCell id="123" value="&lt;h1&gt;Brands that trust me&amp;nbsp;&lt;/h1&gt;&lt;h1&gt;with their CI&lt;/h1&gt;&lt;div&gt;&lt;br&gt;&lt;/div&gt;&lt;div&gt;ABSA&lt;/div&gt;&lt;div&gt;&lt;br&gt;&lt;/div&gt;&lt;div&gt;Hollywood Bets&lt;br&gt;&lt;br&gt;Standard Bank&lt;/div&gt;&lt;div&gt;&lt;br&gt;&lt;/div&gt;&lt;div&gt;Old Mutual&lt;br&gt;&lt;br&gt;SelfieBox&lt;/div&gt;" style="text;html=1;strokeColor=none;fillColor=none;spacing=5;spacingTop=-20;whiteSpace=wrap;overflow=hidden;rounded=0;fontSize=14;align=right;" parent="90" vertex="1">
                    <mxGeometry x="990" y="116" width="295" height="300" as="geometry"/>
                </mxCell>
                <mxCell id="367" value="&lt;h1&gt;&lt;span style=&quot;background-color: initial;&quot;&gt;Skills&lt;/span&gt;&lt;/h1&gt;&lt;h1&gt;&lt;span style=&quot;font-size: 14px; font-weight: 400;&quot;&gt;Adobe photoshop, Adobe Premier Pro&lt;/span&gt;&lt;/h1&gt;" style="text;html=1;strokeColor=none;fillColor=none;spacing=5;spacingTop=-20;whiteSpace=wrap;overflow=hidden;rounded=0;fontSize=14;align=right;" vertex="1" parent="73">
                    <mxGeometry x="721" y="345" width="280" height="112.5" as="geometry"/>
                </mxCell>
                <mxCell id="99" value="" style="shape=manualInput;whiteSpace=wrap;html=1;movable=0;resizable=0;rotatable=0;deletable=0;editable=0;connectable=0;" parent="72" vertex="1">
                    <mxGeometry x="1384" width="25" height="26" as="geometry"/>
                </mxCell>
                <mxCell id="124" value="" style="group;movable=1;resizable=1;rotatable=1;deletable=1;editable=1;connectable=1;" parent="1" vertex="1" connectable="0">
                    <mxGeometry x="2639" y="-1102" width="1409" height="862" as="geometry"/>
                </mxCell>
                <mxCell id="125" value="" style="group;movable=1;resizable=1;rotatable=1;deletable=1;editable=1;connectable=1;" parent="124" vertex="1" connectable="0">
                    <mxGeometry y="3" width="1400" height="859" as="geometry"/>
                </mxCell>
                <mxCell id="126" value="&amp;nbsp; &amp;nbsp; www.thisisluke.com" style="rounded=1;whiteSpace=wrap;html=1;align=left;movable=0;resizable=0;rotatable=0;deletable=0;editable=0;connectable=0;" parent="125" vertex="1">
                    <mxGeometry x="59" width="1312" height="22" as="geometry"/>
                </mxCell>
                <mxCell id="127" value="" style="rounded=0;whiteSpace=wrap;html=1;movable=0;resizable=0;rotatable=0;deletable=0;editable=0;connectable=0;" parent="125" vertex="1">
                    <mxGeometry x="24" y="38" width="1376" height="821" as="geometry"/>
                </mxCell>
                <mxCell id="128" value="" style="ellipse;whiteSpace=wrap;html=1;aspect=fixed;movable=0;resizable=0;rotatable=0;deletable=0;editable=0;connectable=0;" parent="125" vertex="1">
                    <mxGeometry x="17" y="5" width="12" height="12" as="geometry"/>
                </mxCell>
                <mxCell id="129" value="" style="ellipse;whiteSpace=wrap;html=1;aspect=fixed;movable=0;resizable=0;rotatable=0;deletable=0;editable=0;connectable=0;" parent="125" vertex="1">
                    <mxGeometry x="34" y="5" width="12" height="12" as="geometry"/>
                </mxCell>
                <mxCell id="130" value="" style="ellipse;whiteSpace=wrap;html=1;aspect=fixed;movable=0;resizable=0;rotatable=0;deletable=0;editable=0;connectable=0;" parent="125" vertex="1">
                    <mxGeometry y="5" width="12" height="12" as="geometry"/>
                </mxCell>
                <mxCell id="131" value="Design" style="text;html=1;strokeColor=none;fillColor=none;align=center;verticalAlign=middle;whiteSpace=wrap;rounded=0;fontSize=14;" parent="125" vertex="1">
                    <mxGeometry x="959" y="62" width="60" height="30" as="geometry"/>
                </mxCell>
                <mxCell id="132" value="Photography" style="text;html=1;strokeColor=none;fillColor=none;align=center;verticalAlign=middle;whiteSpace=wrap;rounded=0;fontSize=14;" parent="125" vertex="1">
                    <mxGeometry x="1040" y="62" width="60" height="30" as="geometry"/>
                </mxCell>
                <mxCell id="133" value="Programming" style="text;html=1;strokeColor=none;fillColor=none;align=center;verticalAlign=middle;whiteSpace=wrap;rounded=0;fontSize=14;" parent="125" vertex="1">
                    <mxGeometry x="1140" y="62" width="60" height="30" as="geometry"/>
                </mxCell>
                <mxCell id="134" value="Blog" style="text;html=1;strokeColor=none;fillColor=none;align=center;verticalAlign=middle;whiteSpace=wrap;rounded=0;fontSize=14;" parent="125" vertex="1">
                    <mxGeometry x="1328" y="62" width="60" height="30" as="geometry"/>
                </mxCell>
                <mxCell id="135" value="contact" style="ellipse;whiteSpace=wrap;html=1;aspect=fixed;" parent="125" vertex="1">
                    <mxGeometry x="1287" y="753" width="80" height="80" as="geometry"/>
                </mxCell>
                <mxCell id="136" value="&lt;h1&gt;This Is Luke Photography&lt;/h1&gt;&lt;p&gt;I have over 6 years experince as a photographer in a hobby and proffesional setting&lt;/p&gt;&lt;p&gt;I have a passion for it and enjoy the process of making art using digital cameras.&lt;/p&gt;&lt;p&gt;I have a love for street, fine art and portrature photography&lt;/p&gt;&lt;p&gt;&lt;br&gt;&lt;/p&gt;&lt;p&gt;&lt;br&gt;&lt;/p&gt;" style="text;html=1;strokeColor=none;fillColor=none;spacing=5;spacingTop=-20;whiteSpace=wrap;overflow=hidden;rounded=0;fontSize=14;align=right;" parent="125" vertex="1">
                    <mxGeometry x="358" y="179" width="643" height="300" as="geometry"/>
                </mxCell>
                <mxCell id="137" value="Photography anchor design" style="rounded=0;whiteSpace=wrap;html=1;fontSize=14;" parent="125" vertex="1">
                    <mxGeometry x="59" y="179" width="215" height="597" as="geometry"/>
                </mxCell>
                <mxCell id="138" value="" style="group" parent="125" vertex="1" connectable="0">
                    <mxGeometry x="59" y="62" width="1329" height="771" as="geometry"/>
                </mxCell>
                <mxCell id="139" value="logo" style="ellipse;whiteSpace=wrap;html=1;aspect=fixed;" parent="138" vertex="1">
                    <mxGeometry y="9" width="80" height="80" as="geometry"/>
                </mxCell>
                <mxCell id="140" value="" style="endArrow=none;html=1;" parent="138" edge="1">
                    <mxGeometry width="50" height="50" relative="1" as="geometry">
                        <mxPoint x="104" y="48.44" as="sourcePoint"/>
                        <mxPoint x="1315" y="48.44" as="targetPoint"/>
                    </mxGeometry>
                </mxCell>
                <mxCell id="141" value="Home" style="text;html=1;strokeColor=none;fillColor=none;align=center;verticalAlign=middle;whiteSpace=wrap;rounded=0;fontSize=14;" parent="138" vertex="1">
                    <mxGeometry x="95" width="60" height="30" as="geometry"/>
                </mxCell>
                <mxCell id="142" value="contact" style="ellipse;whiteSpace=wrap;html=1;aspect=fixed;" parent="138" vertex="1">
                    <mxGeometry x="1228" y="691" width="80" height="80" as="geometry"/>
                </mxCell>
                <mxCell id="143" value="Blog" style="text;html=1;strokeColor=none;fillColor=none;align=center;verticalAlign=middle;whiteSpace=wrap;rounded=0;fontSize=14;" parent="138" vertex="1">
                    <mxGeometry x="1269" width="60" height="30" as="geometry"/>
                </mxCell>
                <mxCell id="144" value="Programming" style="text;html=1;strokeColor=none;fillColor=none;align=center;verticalAlign=middle;whiteSpace=wrap;rounded=0;fontSize=14;" parent="138" vertex="1">
                    <mxGeometry x="1081" width="60" height="30" as="geometry"/>
                </mxCell>
                <mxCell id="145" value="Photography" style="text;html=1;strokeColor=none;fillColor=none;align=center;verticalAlign=middle;whiteSpace=wrap;rounded=0;fontSize=14;fontStyle=4" parent="138" vertex="1">
                    <mxGeometry x="981" width="60" height="30" as="geometry"/>
                </mxCell>
                <mxCell id="146" value="Design" style="text;html=1;strokeColor=none;fillColor=none;align=center;verticalAlign=middle;whiteSpace=wrap;rounded=0;fontSize=14;fontStyle=0" parent="138" vertex="1">
                    <mxGeometry x="900" width="60" height="30" as="geometry"/>
                </mxCell>
                <mxCell id="147" value="Carrosell of some photos" style="rounded=0;whiteSpace=wrap;html=1;fontSize=14;" parent="138" vertex="1">
                    <mxGeometry x="335" y="416" width="728" height="301" as="geometry"/>
                </mxCell>
                <mxCell id="150" value="Porfolio photo linkedin" style="whiteSpace=wrap;html=1;aspect=fixed;fontSize=14;" parent="125" vertex="1">
                    <mxGeometry x="1062" y="182" width="266" height="266" as="geometry"/>
                </mxCell>
                <mxCell id="368" value="&lt;h1&gt;&lt;span style=&quot;background-color: initial;&quot;&gt;Skills&lt;/span&gt;&lt;/h1&gt;&lt;h1&gt;&lt;span style=&quot;font-size: 14px; font-weight: 400;&quot;&gt;Canon gear, portrature, high speed, street, Lighting&lt;/span&gt;&lt;/h1&gt;" style="text;html=1;strokeColor=none;fillColor=none;spacing=5;spacingTop=-20;whiteSpace=wrap;overflow=hidden;rounded=0;fontSize=14;align=right;" vertex="1" parent="125">
                    <mxGeometry x="590" y="346" width="411" height="112.5" as="geometry"/>
                </mxCell>
                <mxCell id="149" value="" style="shape=manualInput;whiteSpace=wrap;html=1;movable=0;resizable=0;rotatable=0;deletable=0;editable=0;connectable=0;" parent="124" vertex="1">
                    <mxGeometry x="1384" width="25" height="26" as="geometry"/>
                </mxCell>
                <mxCell id="176" value="" style="group;movable=1;resizable=1;rotatable=1;deletable=1;editable=1;connectable=1;" parent="1" vertex="1" connectable="0">
                    <mxGeometry x="4214" y="-1105" width="1409" height="862" as="geometry"/>
                </mxCell>
                <mxCell id="177" value="" style="group;movable=1;resizable=1;rotatable=1;deletable=1;editable=1;connectable=1;" parent="176" vertex="1" connectable="0">
                    <mxGeometry y="3" width="1400" height="859" as="geometry"/>
                </mxCell>
                <mxCell id="178" value="&amp;nbsp; &amp;nbsp; www.thisisluke.com" style="rounded=1;whiteSpace=wrap;html=1;align=left;movable=0;resizable=0;rotatable=0;deletable=0;editable=0;connectable=0;" parent="177" vertex="1">
                    <mxGeometry x="59" width="1312" height="22" as="geometry"/>
                </mxCell>
                <mxCell id="179" value="" style="rounded=0;whiteSpace=wrap;html=1;movable=0;resizable=0;rotatable=0;deletable=0;editable=0;connectable=0;" parent="177" vertex="1">
                    <mxGeometry x="24" y="38" width="1376" height="821" as="geometry"/>
                </mxCell>
                <mxCell id="180" value="" style="ellipse;whiteSpace=wrap;html=1;aspect=fixed;movable=0;resizable=0;rotatable=0;deletable=0;editable=0;connectable=0;" parent="177" vertex="1">
                    <mxGeometry x="17" y="5" width="12" height="12" as="geometry"/>
                </mxCell>
                <mxCell id="181" value="" style="ellipse;whiteSpace=wrap;html=1;aspect=fixed;movable=0;resizable=0;rotatable=0;deletable=0;editable=0;connectable=0;" parent="177" vertex="1">
                    <mxGeometry x="34" y="5" width="12" height="12" as="geometry"/>
                </mxCell>
                <mxCell id="182" value="" style="ellipse;whiteSpace=wrap;html=1;aspect=fixed;movable=0;resizable=0;rotatable=0;deletable=0;editable=0;connectable=0;" parent="177" vertex="1">
                    <mxGeometry y="5" width="12" height="12" as="geometry"/>
                </mxCell>
                <mxCell id="183" value="Design" style="text;html=1;strokeColor=none;fillColor=none;align=center;verticalAlign=middle;whiteSpace=wrap;rounded=0;fontSize=14;" parent="177" vertex="1">
                    <mxGeometry x="959" y="62" width="60" height="30" as="geometry"/>
                </mxCell>
                <mxCell id="184" value="Photography" style="text;html=1;strokeColor=none;fillColor=none;align=center;verticalAlign=middle;whiteSpace=wrap;rounded=0;fontSize=14;" parent="177" vertex="1">
                    <mxGeometry x="1040" y="62" width="60" height="30" as="geometry"/>
                </mxCell>
                <mxCell id="185" value="Programming" style="text;html=1;strokeColor=none;fillColor=none;align=center;verticalAlign=middle;whiteSpace=wrap;rounded=0;fontSize=14;" parent="177" vertex="1">
                    <mxGeometry x="1140" y="62" width="60" height="30" as="geometry"/>
                </mxCell>
                <mxCell id="186" value="Blog" style="text;html=1;strokeColor=none;fillColor=none;align=center;verticalAlign=middle;whiteSpace=wrap;rounded=0;fontSize=14;" parent="177" vertex="1">
                    <mxGeometry x="1328" y="62" width="60" height="30" as="geometry"/>
                </mxCell>
                <mxCell id="187" value="contact" style="ellipse;whiteSpace=wrap;html=1;aspect=fixed;" parent="177" vertex="1">
                    <mxGeometry x="1287" y="753" width="80" height="80" as="geometry"/>
                </mxCell>
                <mxCell id="188" value="&lt;h1&gt;This Is Luke Programming&lt;/h1&gt;&lt;p&gt;I Have embarked on a juourny of web development to base my skills as a programmer.&lt;/p&gt;&lt;p&gt;My goal is to work in AR technologies like the new apple VR Vision&lt;/p&gt;&lt;p&gt;I want to bring gesture control and the future of technology to everyone, not just the ultra rich&lt;/p&gt;&lt;p&gt;&lt;br&gt;&lt;/p&gt;" style="text;html=1;strokeColor=none;fillColor=none;spacing=5;spacingTop=-20;whiteSpace=wrap;overflow=hidden;rounded=0;fontSize=14;align=right;" parent="177" vertex="1">
                    <mxGeometry x="358" y="179" width="643" height="300" as="geometry"/>
                </mxCell>
                <mxCell id="189" value="Development anchor design" style="rounded=0;whiteSpace=wrap;html=1;fontSize=14;" parent="177" vertex="1">
                    <mxGeometry x="59" y="179" width="215" height="597" as="geometry"/>
                </mxCell>
                <mxCell id="190" value="" style="group" parent="177" vertex="1" connectable="0">
                    <mxGeometry x="59" y="62" width="1329" height="771" as="geometry"/>
                </mxCell>
                <mxCell id="191" value="logo" style="ellipse;whiteSpace=wrap;html=1;aspect=fixed;" parent="190" vertex="1">
                    <mxGeometry y="9" width="80" height="80" as="geometry"/>
                </mxCell>
                <mxCell id="192" value="" style="endArrow=none;html=1;" parent="190" edge="1">
                    <mxGeometry width="50" height="50" relative="1" as="geometry">
                        <mxPoint x="104" y="48.44" as="sourcePoint"/>
                        <mxPoint x="1315" y="48.44" as="targetPoint"/>
                    </mxGeometry>
                </mxCell>
                <mxCell id="193" value="Home" style="text;html=1;strokeColor=none;fillColor=none;align=center;verticalAlign=middle;whiteSpace=wrap;rounded=0;fontSize=14;" parent="190" vertex="1">
                    <mxGeometry x="95" width="60" height="30" as="geometry"/>
                </mxCell>
                <mxCell id="194" value="contact" style="ellipse;whiteSpace=wrap;html=1;aspect=fixed;" parent="190" vertex="1">
                    <mxGeometry x="1228" y="691" width="80" height="80" as="geometry"/>
                </mxCell>
                <mxCell id="195" value="Blog" style="text;html=1;strokeColor=none;fillColor=none;align=center;verticalAlign=middle;whiteSpace=wrap;rounded=0;fontSize=14;" parent="190" vertex="1">
                    <mxGeometry x="1269" width="60" height="30" as="geometry"/>
                </mxCell>
                <mxCell id="196" value="Programming" style="text;html=1;strokeColor=none;fillColor=none;align=center;verticalAlign=middle;whiteSpace=wrap;rounded=0;fontSize=14;fontStyle=4" parent="190" vertex="1">
                    <mxGeometry x="1081" width="60" height="30" as="geometry"/>
                </mxCell>
                <mxCell id="197" value="Photography" style="text;html=1;strokeColor=none;fillColor=none;align=center;verticalAlign=middle;whiteSpace=wrap;rounded=0;fontSize=14;fontStyle=0" parent="190" vertex="1">
                    <mxGeometry x="981" width="60" height="30" as="geometry"/>
                </mxCell>
                <mxCell id="198" value="Design" style="text;html=1;strokeColor=none;fillColor=none;align=center;verticalAlign=middle;whiteSpace=wrap;rounded=0;fontSize=14;fontStyle=0" parent="190" vertex="1">
                    <mxGeometry x="900" width="60" height="30" as="geometry"/>
                </mxCell>
                <mxCell id="199" value="Project 1.&lt;br&gt;Shopping list" style="rounded=0;whiteSpace=wrap;html=1;fontSize=14;" parent="190" vertex="1">
                    <mxGeometry x="335" y="416" width="226" height="301" as="geometry"/>
                </mxCell>
                <mxCell id="202" value="Project 2.&lt;br&gt;SPRC Site" style="rounded=0;whiteSpace=wrap;html=1;fontSize=14;" parent="190" vertex="1">
                    <mxGeometry x="606" y="416" width="226" height="301" as="geometry"/>
                </mxCell>
                <mxCell id="203" value="Project 3.&lt;br&gt;..." style="rounded=0;whiteSpace=wrap;html=1;fontSize=14;" parent="190" vertex="1">
                    <mxGeometry x="875" y="416" width="226" height="301" as="geometry"/>
                </mxCell>
                <mxCell id="200" value="AI profile photo" style="whiteSpace=wrap;html=1;aspect=fixed;fontSize=14;" parent="177" vertex="1">
                    <mxGeometry x="1062" y="182" width="266" height="266" as="geometry"/>
                </mxCell>
                <mxCell id="369" value="&lt;h1&gt;&lt;span style=&quot;background-color: initial;&quot;&gt;Skills&lt;/span&gt;&lt;/h1&gt;&lt;h1&gt;&lt;span style=&quot;font-size: 14px; font-weight: 400;&quot;&gt;Javascript, Node.js, MongoDB, Express.js, React, HTML, CSS&lt;/span&gt;&lt;/h1&gt;" style="text;html=1;strokeColor=none;fillColor=none;spacing=5;spacingTop=-20;whiteSpace=wrap;overflow=hidden;rounded=0;fontSize=14;align=right;" vertex="1" parent="177">
                    <mxGeometry x="586" y="342" width="411" height="112.5" as="geometry"/>
                </mxCell>
                <mxCell id="201" value="" style="shape=manualInput;whiteSpace=wrap;html=1;movable=0;resizable=0;rotatable=0;deletable=0;editable=0;connectable=0;" parent="176" vertex="1">
                    <mxGeometry x="1384" width="25" height="26" as="geometry"/>
                </mxCell>
                <mxCell id="204" value="" style="group;movable=1;resizable=1;rotatable=1;deletable=1;editable=1;connectable=1;" parent="1" vertex="1" connectable="0">
                    <mxGeometry x="-427" y="-112" width="1409" height="862" as="geometry"/>
                </mxCell>
                <mxCell id="205" value="" style="group;movable=1;resizable=1;rotatable=1;deletable=1;editable=1;connectable=1;" parent="204" vertex="1" connectable="0">
                    <mxGeometry y="3" width="1400" height="859" as="geometry"/>
                </mxCell>
                <mxCell id="206" value="&amp;nbsp; &amp;nbsp; www.thisisluke.com" style="rounded=1;whiteSpace=wrap;html=1;align=left;movable=0;resizable=0;rotatable=0;deletable=0;editable=0;connectable=0;" parent="205" vertex="1">
                    <mxGeometry x="59" width="1312" height="22" as="geometry"/>
                </mxCell>
                <mxCell id="207" value="" style="rounded=0;whiteSpace=wrap;html=1;movable=0;resizable=0;rotatable=0;deletable=0;editable=0;connectable=0;" parent="205" vertex="1">
                    <mxGeometry x="24" y="38" width="1376" height="821" as="geometry"/>
                </mxCell>
                <mxCell id="208" value="" style="ellipse;whiteSpace=wrap;html=1;aspect=fixed;movable=0;resizable=0;rotatable=0;deletable=0;editable=0;connectable=0;" parent="205" vertex="1">
                    <mxGeometry x="17" y="5" width="12" height="12" as="geometry"/>
                </mxCell>
                <mxCell id="209" value="" style="ellipse;whiteSpace=wrap;html=1;aspect=fixed;movable=0;resizable=0;rotatable=0;deletable=0;editable=0;connectable=0;" parent="205" vertex="1">
                    <mxGeometry x="34" y="5" width="12" height="12" as="geometry"/>
                </mxCell>
                <mxCell id="210" value="" style="ellipse;whiteSpace=wrap;html=1;aspect=fixed;movable=0;resizable=0;rotatable=0;deletable=0;editable=0;connectable=0;" parent="205" vertex="1">
                    <mxGeometry y="5" width="12" height="12" as="geometry"/>
                </mxCell>
                <mxCell id="211" value="Design" style="text;html=1;strokeColor=none;fillColor=none;align=center;verticalAlign=middle;whiteSpace=wrap;rounded=0;fontSize=14;" parent="205" vertex="1">
                    <mxGeometry x="959" y="62" width="60" height="30" as="geometry"/>
                </mxCell>
                <mxCell id="212" value="Photography" style="text;html=1;strokeColor=none;fillColor=none;align=center;verticalAlign=middle;whiteSpace=wrap;rounded=0;fontSize=14;" parent="205" vertex="1">
                    <mxGeometry x="1040" y="62" width="60" height="30" as="geometry"/>
                </mxCell>
                <mxCell id="213" value="Programming" style="text;html=1;strokeColor=none;fillColor=none;align=center;verticalAlign=middle;whiteSpace=wrap;rounded=0;fontSize=14;" parent="205" vertex="1">
                    <mxGeometry x="1140" y="62" width="60" height="30" as="geometry"/>
                </mxCell>
                <mxCell id="214" value="Blog" style="text;html=1;strokeColor=none;fillColor=none;align=center;verticalAlign=middle;whiteSpace=wrap;rounded=0;fontSize=14;" parent="205" vertex="1">
                    <mxGeometry x="1328" y="62" width="60" height="30" as="geometry"/>
                </mxCell>
                <mxCell id="215" value="contact" style="ellipse;whiteSpace=wrap;html=1;aspect=fixed;" parent="205" vertex="1">
                    <mxGeometry x="1287" y="753" width="80" height="80" as="geometry"/>
                </mxCell>
                <mxCell id="216" value="Ai profile photo" style="rounded=0;whiteSpace=wrap;html=1;fontSize=14;textOpacity=20;" parent="205" vertex="1">
                    <mxGeometry x="1033" y="179" width="295" height="301" as="geometry"/>
                </mxCell>
                <mxCell id="217" value="&lt;h1&gt;This Is Luke&lt;/h1&gt;&lt;p&gt;I Dream of a future where the Blind paint master pieces&lt;/p&gt;&lt;p&gt;I Dream of a future where the deaf compose symphonies&lt;/p&gt;&lt;p&gt;I Dream of a future where the outcasts of today lead the nations of tomorrow&lt;/p&gt;&lt;p&gt;I Dream of a future where man and technology are one&lt;/p&gt;&lt;p&gt;I Dream, I Create, I Lead&lt;/p&gt;" style="text;html=1;strokeColor=none;fillColor=none;spacing=5;spacingTop=-20;whiteSpace=wrap;overflow=hidden;rounded=0;fontSize=14;align=right;fontStyle=2;textOpacity=20;" parent="205" vertex="1">
                    <mxGeometry x="358" y="179" width="643" height="300" as="geometry"/>
                </mxCell>
                <mxCell id="218" value="Testimonial 1&lt;br&gt;&lt;br&gt;asjdbnaksjd asjkld kajsd&lt;br&gt;jkasnd kjasdn&amp;nbsp;&lt;br&gt;ajksdnjkasdnkasjdnasjkd" style="rounded=0;whiteSpace=wrap;html=1;fontSize=14;textOpacity=20;" parent="205" vertex="1">
                    <mxGeometry x="366" y="586" width="198" height="189" as="geometry"/>
                </mxCell>
                <mxCell id="219" value="Home anchor design" style="rounded=0;whiteSpace=wrap;html=1;fontSize=14;textOpacity=20;" parent="205" vertex="1">
                    <mxGeometry x="59" y="179" width="215" height="597" as="geometry"/>
                </mxCell>
                <mxCell id="220" value="Testimonial 2&lt;br&gt;&lt;br&gt;asjdbnaksjd asjkld kajsd&lt;br&gt;jkasnd kjasdn&amp;nbsp;&lt;br&gt;ajksdnjkasdnkasjdnasjkd" style="rounded=0;whiteSpace=wrap;html=1;fontSize=14;textOpacity=20;" parent="205" vertex="1">
                    <mxGeometry x="635" y="586" width="198" height="189" as="geometry"/>
                </mxCell>
                <mxCell id="221" value="Testimonial 3&lt;br&gt;&lt;br&gt;asjdbnaksjd asjkld kajsd&lt;br&gt;jkasnd kjasdn&amp;nbsp;&lt;br&gt;ajksdnjkasdnkasjdnasjkd" style="rounded=0;whiteSpace=wrap;html=1;fontSize=14;textOpacity=20;" parent="205" vertex="1">
                    <mxGeometry x="902" y="587" width="198" height="189" as="geometry"/>
                </mxCell>
                <mxCell id="222" value="" style="group" parent="205" vertex="1" connectable="0">
                    <mxGeometry x="59" y="62" width="1329" height="771" as="geometry"/>
                </mxCell>
                <mxCell id="223" value="logo" style="ellipse;whiteSpace=wrap;html=1;aspect=fixed;" parent="222" vertex="1">
                    <mxGeometry y="9" width="80" height="80" as="geometry"/>
                </mxCell>
                <mxCell id="224" value="" style="endArrow=none;html=1;" parent="222" edge="1">
                    <mxGeometry width="50" height="50" relative="1" as="geometry">
                        <mxPoint x="104" y="48.44" as="sourcePoint"/>
                        <mxPoint x="1315" y="48.44" as="targetPoint"/>
                    </mxGeometry>
                </mxCell>
                <mxCell id="225" value="Home" style="text;html=1;strokeColor=none;fillColor=none;align=center;verticalAlign=middle;whiteSpace=wrap;rounded=0;fontSize=14;fontStyle=4" parent="222" vertex="1">
                    <mxGeometry x="95" width="60" height="30" as="geometry"/>
                </mxCell>
                <mxCell id="226" value="contact" style="ellipse;whiteSpace=wrap;html=1;aspect=fixed;" parent="222" vertex="1">
                    <mxGeometry x="1228" y="691" width="80" height="80" as="geometry"/>
                </mxCell>
                <mxCell id="227" value="Blog" style="text;html=1;strokeColor=none;fillColor=none;align=center;verticalAlign=middle;whiteSpace=wrap;rounded=0;fontSize=14;" parent="222" vertex="1">
                    <mxGeometry x="1269" width="60" height="30" as="geometry"/>
                </mxCell>
                <mxCell id="228" value="Programming" style="text;html=1;strokeColor=none;fillColor=none;align=center;verticalAlign=middle;whiteSpace=wrap;rounded=0;fontSize=14;" parent="222" vertex="1">
                    <mxGeometry x="1081" width="60" height="30" as="geometry"/>
                </mxCell>
                <mxCell id="229" value="Photography" style="text;html=1;strokeColor=none;fillColor=none;align=center;verticalAlign=middle;whiteSpace=wrap;rounded=0;fontSize=14;" parent="222" vertex="1">
                    <mxGeometry x="981" width="60" height="30" as="geometry"/>
                </mxCell>
                <mxCell id="230" value="Design" style="text;html=1;strokeColor=none;fillColor=none;align=center;verticalAlign=middle;whiteSpace=wrap;rounded=0;fontSize=14;" parent="222" vertex="1">
                    <mxGeometry x="900" width="60" height="30" as="geometry"/>
                </mxCell>
                <mxCell id="232" value="" style="rounded=0;whiteSpace=wrap;html=1;fontSize=14;" parent="205" vertex="1">
                    <mxGeometry x="426" y="249.5" width="531" height="394.5" as="geometry"/>
                </mxCell>
                <mxCell id="233" style="edgeStyle=none;html=1;exitX=0;exitY=0;exitDx=0;exitDy=0;entryX=1;entryY=1;entryDx=0;entryDy=0;fontSize=14;" parent="205" source="226" target="232" edge="1">
                    <mxGeometry relative="1" as="geometry"/>
                </mxCell>
                <mxCell id="234" value="Name" style="rounded=1;whiteSpace=wrap;html=1;fontSize=14;" parent="205" vertex="1">
                    <mxGeometry x="544.75" y="381" width="293.5" height="29" as="geometry"/>
                </mxCell>
                <mxCell id="235" value="Email" style="rounded=1;whiteSpace=wrap;html=1;fontSize=14;" parent="205" vertex="1">
                    <mxGeometry x="544.75" y="424" width="293.5" height="29" as="geometry"/>
                </mxCell>
                <mxCell id="236" value="Description" style="rounded=1;whiteSpace=wrap;html=1;fontSize=14;" parent="205" vertex="1">
                    <mxGeometry x="544.75" y="489" width="293.5" height="79" as="geometry"/>
                </mxCell>
                <mxCell id="237" value="Contact" style="text;html=1;strokeColor=none;fillColor=none;align=center;verticalAlign=middle;whiteSpace=wrap;rounded=0;fontSize=14;" parent="205" vertex="1">
                    <mxGeometry x="661.5" y="303" width="60" height="30" as="geometry"/>
                </mxCell>
                <mxCell id="231" value="" style="shape=manualInput;whiteSpace=wrap;html=1;movable=0;resizable=0;rotatable=0;deletable=0;editable=0;connectable=0;" parent="204" vertex="1">
                    <mxGeometry x="1384" width="25" height="26" as="geometry"/>
                </mxCell>
                <mxCell id="350" value="" style="group" parent="1" vertex="1" connectable="0">
                    <mxGeometry x="-411" y="1092" width="400" height="1730.2636644047934" as="geometry"/>
                </mxCell>
                <mxCell id="266" value="" style="rounded=0;whiteSpace=wrap;html=1;fontSize=14;imageHeight=24;imageWidth=24;" parent="350" vertex="1">
                    <mxGeometry y="38" width="400" height="1615" as="geometry"/>
                </mxCell>
                <mxCell id="267" value="&lt;h1&gt;This Is Luke&lt;/h1&gt;&lt;p&gt;I Dream of a future where the Blind paint master pieces&lt;/p&gt;&lt;p&gt;I Dream of a future where the deaf compose symphonies&lt;/p&gt;&lt;p&gt;I Dream of a future where the outcasts of today lead the nations of tomorrow&lt;/p&gt;&lt;p&gt;I Dream of a future where man and technology are one&lt;/p&gt;&lt;p&gt;I Dream, I Create, I Lead&lt;/p&gt;" style="text;html=1;strokeColor=none;fillColor=none;spacing=5;spacingTop=-20;whiteSpace=wrap;overflow=hidden;rounded=0;fontSize=14;align=right;" parent="350" vertex="1">
                    <mxGeometry x="20" y="158" width="360" height="300" as="geometry"/>
                </mxCell>
                <mxCell id="286" value="" style="group" parent="350" vertex="1" connectable="0">
                    <mxGeometry x="338" y="54" width="42" height="30" as="geometry"/>
                </mxCell>
                <mxCell id="283" value="" style="line;strokeWidth=2;html=1;fontSize=14;" parent="286" vertex="1">
                    <mxGeometry width="42" height="10" as="geometry"/>
                </mxCell>
                <mxCell id="284" value="" style="line;strokeWidth=2;html=1;fontSize=14;" parent="286" vertex="1">
                    <mxGeometry y="10" width="42" height="10" as="geometry"/>
                </mxCell>
                <mxCell id="285" value="" style="line;strokeWidth=2;html=1;fontSize=14;" parent="286" vertex="1">
                    <mxGeometry y="20" width="42" height="10" as="geometry"/>
                </mxCell>
                <mxCell id="270" value="" style="ellipse;whiteSpace=wrap;html=1;aspect=fixed;fontSize=14;" parent="350" vertex="1">
                    <mxGeometry x="173.75" y="1673" width="44" height="44" as="geometry"/>
                </mxCell>
                <mxCell id="268" value="" style="triangle;whiteSpace=wrap;html=1;fontSize=14;rotation=55;" parent="350" vertex="1">
                    <mxGeometry x="29.75" y="1673" width="38" height="53" as="geometry"/>
                </mxCell>
                <mxCell id="271" value="" style="whiteSpace=wrap;html=1;aspect=fixed;fontSize=14;" parent="350" vertex="1">
                    <mxGeometry x="330.25" y="1675" width="40" height="40" as="geometry"/>
                </mxCell>
                <mxCell id="272" value="" style="ellipse;whiteSpace=wrap;html=1;aspect=fixed;fontSize=14;" parent="350" vertex="1">
                    <mxGeometry x="188.5" width="23" height="23" as="geometry"/>
                </mxCell>
                <mxCell id="274" value="Ai profile photo" style="rounded=0;whiteSpace=wrap;html=1;fontSize=14;" parent="350" vertex="1">
                    <mxGeometry x="52.5" y="458" width="295" height="301" as="geometry"/>
                </mxCell>
                <mxCell id="260" value="contact" style="ellipse;whiteSpace=wrap;html=1;aspect=fixed;" parent="350" vertex="1">
                    <mxGeometry x="297" y="1543" width="80" height="80" as="geometry"/>
                </mxCell>
                <mxCell id="346" value="Testimonial 1&lt;br&gt;&lt;br&gt;asjdbnaksjd asjkld kajsd&lt;br&gt;jkasnd kjasdn&amp;nbsp;&lt;br&gt;ajksdnjkasdnkasjdnasjkd" style="rounded=0;whiteSpace=wrap;html=1;fontSize=14;" parent="350" vertex="1">
                    <mxGeometry x="101" y="854" width="198" height="189" as="geometry"/>
                </mxCell>
                <mxCell id="347" value="Testimonial 2&lt;br&gt;&lt;br&gt;asjdbnaksjd asjkld kajsd&lt;br&gt;jkasnd kjasdn&amp;nbsp;&lt;br&gt;ajksdnjkasdnkasjdnasjkd" style="rounded=0;whiteSpace=wrap;html=1;fontSize=14;" parent="350" vertex="1">
                    <mxGeometry x="101" y="1077" width="198" height="189" as="geometry"/>
                </mxCell>
                <mxCell id="348" value="Testimonial 3&lt;br&gt;&lt;br&gt;asjdbnaksjd asjkld kajsd&lt;br&gt;jkasnd kjasdn&amp;nbsp;&lt;br&gt;ajksdnjkasdnkasjdnasjkd" style="rounded=0;whiteSpace=wrap;html=1;fontSize=14;" parent="350" vertex="1">
                    <mxGeometry x="101" y="1302" width="198" height="189" as="geometry"/>
                </mxCell>
                <mxCell id="351" value="" style="group" parent="1" vertex="1" connectable="0">
                    <mxGeometry x="175" y="1092" width="400" height="1730.2636644047934" as="geometry"/>
                </mxCell>
                <mxCell id="352" value="" style="rounded=0;whiteSpace=wrap;html=1;fontSize=14;imageHeight=24;imageWidth=24;" parent="351" vertex="1">
                    <mxGeometry y="38" width="400" height="1615" as="geometry"/>
                </mxCell>
                <mxCell id="353" value="&lt;h1&gt;This Is Luke&lt;/h1&gt;&lt;p&gt;I Dream of a future where the Blind paint master pieces&lt;/p&gt;&lt;p&gt;I Dream of a future where the deaf compose symphonies&lt;/p&gt;&lt;p&gt;I Dream of a future where the outcasts of today lead the nations of tomorrow&lt;/p&gt;&lt;p&gt;I Dream of a future where man and technology are one&lt;/p&gt;&lt;p&gt;I Dream, I Create, I Lead&lt;/p&gt;" style="text;html=1;strokeColor=none;fillColor=none;spacing=5;spacingTop=-20;whiteSpace=wrap;overflow=hidden;rounded=0;fontSize=14;align=right;" parent="351" vertex="1">
                    <mxGeometry x="20" y="158" width="360" height="300" as="geometry"/>
                </mxCell>
                <mxCell id="354" value="" style="group" parent="351" vertex="1" connectable="0">
                    <mxGeometry x="338" y="54" width="42" height="30" as="geometry"/>
                </mxCell>
                <mxCell id="355" value="" style="line;strokeWidth=2;html=1;fontSize=14;" parent="354" vertex="1">
                    <mxGeometry width="42" height="10" as="geometry"/>
                </mxCell>
                <mxCell id="356" value="" style="line;strokeWidth=2;html=1;fontSize=14;" parent="354" vertex="1">
                    <mxGeometry y="10" width="42" height="10" as="geometry"/>
                </mxCell>
                <mxCell id="357" value="" style="line;strokeWidth=2;html=1;fontSize=14;" parent="354" vertex="1">
                    <mxGeometry y="20" width="42" height="10" as="geometry"/>
                </mxCell>
                <mxCell id="358" value="" style="ellipse;whiteSpace=wrap;html=1;aspect=fixed;fontSize=14;" parent="351" vertex="1">
                    <mxGeometry x="173.75" y="1673" width="44" height="44" as="geometry"/>
                </mxCell>
                <mxCell id="359" value="" style="triangle;whiteSpace=wrap;html=1;fontSize=14;rotation=55;" parent="351" vertex="1">
                    <mxGeometry x="29.75" y="1673" width="38" height="53" as="geometry"/>
                </mxCell>
                <mxCell id="360" value="" style="whiteSpace=wrap;html=1;aspect=fixed;fontSize=14;" parent="351" vertex="1">
                    <mxGeometry x="330.25" y="1675" width="40" height="40" as="geometry"/>
                </mxCell>
                <mxCell id="361" value="" style="ellipse;whiteSpace=wrap;html=1;aspect=fixed;fontSize=14;" parent="351" vertex="1">
                    <mxGeometry x="188.5" width="23" height="23" as="geometry"/>
                </mxCell>
                <mxCell id="362" value="Ai profile photo" style="rounded=0;whiteSpace=wrap;html=1;fontSize=14;" parent="351" vertex="1">
                    <mxGeometry x="52.5" y="458" width="295" height="301" as="geometry"/>
                </mxCell>
                <mxCell id="363" value="contact" style="ellipse;whiteSpace=wrap;html=1;aspect=fixed;" parent="351" vertex="1">
                    <mxGeometry x="297" y="1543" width="80" height="80" as="geometry"/>
                </mxCell>
                <mxCell id="364" value="Testimonial 1&lt;br&gt;&lt;br&gt;asjdbnaksjd asjkld kajsd&lt;br&gt;jkasnd kjasdn&amp;nbsp;&lt;br&gt;ajksdnjkasdnkasjdnasjkd" style="rounded=0;whiteSpace=wrap;html=1;fontSize=14;" parent="351" vertex="1">
                    <mxGeometry x="101" y="854" width="198" height="189" as="geometry"/>
                </mxCell>
                <mxCell id="365" value="Testimonial 2&lt;br&gt;&lt;br&gt;asjdbnaksjd asjkld kajsd&lt;br&gt;jkasnd kjasdn&amp;nbsp;&lt;br&gt;ajksdnjkasdnkasjdnasjkd" style="rounded=0;whiteSpace=wrap;html=1;fontSize=14;" parent="351" vertex="1">
                    <mxGeometry x="101" y="1077" width="198" height="189" as="geometry"/>
                </mxCell>
                <mxCell id="366" value="Testimonial 3&lt;br&gt;&lt;br&gt;asjdbnaksjd asjkld kajsd&lt;br&gt;jkasnd kjasdn&amp;nbsp;&lt;br&gt;ajksdnjkasdnkasjdnasjkd" style="rounded=0;whiteSpace=wrap;html=1;fontSize=14;" parent="351" vertex="1">
                    <mxGeometry x="101" y="1302" width="198" height="189" as="geometry"/>
                </mxCell>
            </root>
        </mxGraphModel>
    </diagram>
</mxfile>